<?xml version="1.0" standalone="no"?>
<!DOCTYPE svg PUBLIC "-//W3C//DTD SVG 20010904//EN"
        "http://www.w3.org/TR/2001/REC-SVG-20010904/DTD/svg10.dtd">
<svg version="1.0" xmlns="http://www.w3.org/2000/svg"
     width="275.000000pt" height="300.000000pt" viewBox="0 0 275.000000 300.000000"
     preserveAspectRatio="xMidYMid meet">
    <metadata>
        Created by potrace 1.15, written by Peter Selinger 2001-2017
    </metadata>
    <g transform="translate(0.000000,300.000000) scale(0.100000,-0.100000)"
       fill="#ffffff" stroke="none">
        <path d="M195 2972 c-116 -75 -133 -165 -64 -348 23 -60 54 -146 69 -190 l28
-82 -40 -6 c-57 -9 -98 -53 -98 -104 0 -73 58 -112 168 -112 50 0 51 -1 62
-37 7 -21 18 -48 26 -59 14 -23 24 -51 104 -276 l49 -138 -155 0 c-167 0 -208
-9 -238 -51 -22 -32 -20 -91 3 -121 31 -39 82 -48 282 -48 l184 0 17 -32 c10
-18 34 -78 54 -133 51 -143 114 -324 114 -330 0 -3 -128 -5 -285 -5 -306 0
-336 -4 -369 -51 -20 -30 -21 -88 0 -117 31 -44 53 -47 408 -52 l339 -5 27
-75 c16 -41 51 -138 80 -215 28 -77 63 -158 77 -180 39 -60 111 -123 173 -153
50 -24 66 -27 170 -27 104 0 120 3 170 27 62 30 134 93 173 153 14 22 49 103
77 180 29 77 64 174 80 215 l27 75 339 5 c299 4 343 7 371 23 18 9 37 26 43
36 15 29 12 84 -6 110 -33 47 -63 51 -369 51 -157 0 -285 2 -285 5 0 6 63 187
114 330 20 55 44 115 54 133 l17 32 184 0 c200 0 251 9 282 48 23 30 25 89 3
121 -30 42 -71 51 -238 51 l-155 0 49 138 c80 225 90 253 104 276 8 11 19 38
26 59 12 37 12 37 68 37 65 0 135 27 151 58 35 65 -9 145 -87 158 l-40 6 28
82 c15 44 46 130 69 190 62 165 56 243 -27 318 -49 45 -73 52 -155 46 -110 -7
-154 -57 -218 -243 -50 -148 -102 -290 -129 -347 l-21 -48 -702 0 -702 0 -23
49 c-21 46 -73 190 -137 376 -39 113 -59 150 -102 182 -31 24 -47 28 -112 31
-61 2 -82 -1 -106 -16z m1805 -851 c0 -5 -9 -33 -19 -63 -11 -29 -41 -111 -66
-183 -25 -71 -52 -141 -59 -155 -7 -14 -19 -42 -25 -62 l-13 -38 -438 0 -438
0 -13 38 c-6 20 -18 48 -25 62 -7 14 -34 84 -59 155 -25 72 -55 154 -66 183
-10 30 -19 58 -19 63 0 5 254 9 620 9 366 0 620 -4 620 -9z m-265 -738 c-4
-10 -25 -70 -47 -133 -22 -63 -54 -151 -73 -195 -18 -44 -38 -97 -44 -117
l-13 -38 -178 0 -178 0 -13 38 c-6 20 -26 73 -44 117 -19 44 -51 132 -73 195
-22 63 -43 123 -47 133 -7 16 14 17 355 17 341 0 362 -1 355 -17z m-300 -829
c-44 -128 -51 -142 -61 -132 -3 3 -25 63 -49 132 l-44 126 99 0 99 0 -44 -126z"/>
    </g>
</svg>
