<?xml version="1.0" standalone="no"?>
<!DOCTYPE svg PUBLIC "-//W3C//DTD SVG 20010904//EN"
 "http://www.w3.org/TR/2001/REC-SVG-20010904/DTD/svg10.dtd">
<svg version="1.0" xmlns="http://www.w3.org/2000/svg"
 width="280.000000pt" height="300.000000pt" viewBox="0 0 280.000000 300.000000"
 preserveAspectRatio="xMidYMid meet">
<metadata>
Created by potrace 1.15, written by Peter Selinger 2001-2017
</metadata>
<g transform="translate(0.000000,300.000000) scale(0.100000,-0.100000)"
fill="#000000" stroke="none">
<path d="M149 2960 c-51 -41 -62 -75 -57 -167 4 -67 15 -105 76 -263 40 -102
72 -189 72 -193 0 -4 -22 -7 -49 -7 -61 0 -101 -28 -101 -71 0 -66 38 -89 151
-89 67 0 67 0 79 -32 6 -18 29 -85 51 -148 22 -63 49 -135 60 -160 20 -42 89
-233 89 -245 0 -3 -87 -5 -193 -5 -181 0 -195 -1 -215 -20 -32 -30 -30 -82 4
-109 25 -20 39 -21 245 -21 242 0 231 3 244 -69 3 -18 21 -73 41 -124 20 -51
60 -157 89 -237 l53 -145 -322 -5 c-286 -4 -325 -7 -349 -23 -35 -23 -38 -84
-6 -113 20 -18 45 -19 381 -24 l361 -5 39 -100 c22 -55 60 -156 85 -225 68
-187 147 -291 256 -338 37 -16 257 -16 294 0 109 47 188 151 256 338 25 69 63
170 85 225 l39 100 361 5 c336 5 361 6 381 24 32 29 29 90 -6 113 -24 16 -63
19 -349 23 l-322 5 53 145 c29 80 69 186 89 237 20 51 38 106 41 124 13 72 2
69 244 69 206 0 220 1 245 21 34 27 36 79 4 109 -20 19 -34 20 -215 20 -106 0
-193 2 -193 5 0 12 69 203 89 245 11 25 38 97 60 160 22 63 45 130 51 148 12
32 12 32 79 32 113 0 151 23 151 89 0 43 -40 71 -101 71 -27 0 -49 3 -49 7 0
4 32 91 72 193 62 162 72 195 76 266 5 93 -8 127 -61 168 -30 23 -43 26 -115
26 -138 0 -141 -5 -327 -527 l-48 -133 -741 0 -741 0 -67 188 c-140 393 -145
405 -182 440 -34 31 -39 32 -119 32 -77 0 -85 -2 -118 -30z m1911 -801 c0 -6
-13 -43 -30 -82 -16 -40 -49 -128 -73 -197 -25 -69 -60 -164 -78 -212 l-34
-88 -465 0 -465 0 -34 88 c-18 48 -53 143 -78 212 -24 69 -57 157 -73 197 -17
39 -30 76 -30 82 0 8 204 11 680 11 476 0 680 -3 680 -11z m-270 -734 c0 -2
-11 -33 -25 -67 -37 -95 -119 -322 -150 -420 l-29 -88 -206 0 -206 0 -29 88
c-31 98 -113 325 -150 420 -14 34 -25 65 -25 67 0 3 185 5 410 5 226 0 410 -2
410 -5z m-270 -742 c-1 -5 -25 -75 -54 -158 -79 -220 -93 -220 -172 0 -29 83
-53 153 -54 158 0 4 63 7 140 7 77 0 140 -3 140 -7z"/>
</g>
</svg>
