<svg id="svg" version="1.1" width="400" height="400" viewBox="0 0 400 400" xmlns="http://www.w3.org/2000/svg" xmlns:xlink="http://www.w3.org/1999/xlink" ><g id="svgg"><path id="path0" d="M0.000 200.000 L 0.000 335.667 200.000 335.667 L 400.000 335.667 400.000 200.000 L 400.000 64.333 200.000 64.333 L 0.000 64.333 0.000 200.000 M398.583 200.000 L 398.583 334.250 200.000 334.250 L 1.417 334.250 1.374 200.167 C 1.351 126.421,1.367 65.990,1.411 65.875 C 1.474 65.708,41.286 65.675,200.036 65.708 L 398.583 65.750 398.583 200.000 M195.627 118.785 C 195.834 118.824,196.134 118.823,196.294 118.781 C 196.453 118.739,196.283 118.707,195.917 118.709 C 195.550 118.711,195.420 118.745,195.627 118.785 M203.627 118.785 C 203.834 118.824,204.134 118.823,204.294 118.781 C 204.453 118.739,204.283 118.707,203.917 118.709 C 203.550 118.711,203.420 118.745,203.627 118.785 M145.833 139.917 C 145.428 140.329,145.135 140.667,145.181 140.667 C 145.226 140.667,145.595 140.329,146.000 139.917 C 146.405 139.504,146.699 139.167,146.653 139.167 C 146.607 139.167,146.238 139.504,145.833 139.917 M253.667 139.750 C 253.978 140.071,254.270 140.333,254.315 140.333 C 254.361 140.333,254.144 140.071,253.833 139.750 C 253.522 139.429,253.230 139.167,253.185 139.167 C 253.139 139.167,253.356 139.429,253.667 139.750 M141.406 144.375 L 140.917 144.917 141.458 144.427 C 141.756 144.158,142.000 143.914,142.000 143.885 C 142.000 143.757,141.862 143.870,141.406 144.375 M258.000 144.052 C 258.000 144.081,258.244 144.325,258.542 144.594 L 259.083 145.083 258.594 144.542 C 258.138 144.037,258.000 143.923,258.000 144.052 M258.573 255.375 L 258.083 255.917 258.625 255.427 C 259.130 254.971,259.243 254.833,259.115 254.833 C 259.086 254.833,258.842 255.077,258.573 255.375 M141.000 255.219 C 141.000 255.248,141.244 255.491,141.542 255.760 L 142.083 256.250 141.594 255.708 C 141.138 255.203,141.000 255.090,141.000 255.219 M145.826 260.042 C 146.517 260.778,146.667 260.910,146.667 260.785 C 146.667 260.758,146.310 260.402,145.875 259.993 L 145.083 259.250 145.826 260.042 M253.575 260.375 L 252.917 261.083 253.625 260.425 C 254.284 259.812,254.410 259.667,254.284 259.667 C 254.257 259.667,253.938 259.985,253.575 260.375 M195.625 281.284 C 195.831 281.324,196.169 281.324,196.375 281.284 C 196.581 281.245,196.412 281.212,196.000 281.212 C 195.588 281.212,195.419 281.245,195.625 281.284 M203.627 281.285 C 203.834 281.324,204.134 281.323,204.294 281.281 C 204.453 281.239,204.283 281.207,203.917 281.209 C 203.550 281.211,203.420 281.245,203.627 281.285 " stroke="none" fill="#c4c4c4" fill-rule="evenodd"></path><path id="path1" d="M1.500 200.000 L 1.500 334.167 200.042 334.125 L 398.583 334.083 398.583 200.000 L 398.583 65.917 200.042 65.875 L 1.500 65.833 1.500 200.000 M207.409 118.917 C 250.627 123.510,281.963 160.181,280.008 203.875 C 277.397 262.258,215.969 299.012,164.469 273.005 C 121.389 251.250,106.571 196.947,132.513 155.896 C 148.560 130.502,178.293 115.822,207.409 118.917 " stroke="none" fill="#ffffff" fill-rule="evenodd"></path><path id="path2" d="M193.917 119.012 C 167.886 121.013,143.448 136.518,130.887 159.000 C 128.235 163.748,127.392 165.509,125.503 170.250 C 106.462 218.040,137.632 272.932,188.000 280.312 C 192.786 281.013,193.831 281.080,199.917 281.080 C 240.258 281.080,274.200 250.878,279.236 210.500 C 281.706 190.698,277.175 171.144,266.318 154.751 C 252.934 134.542,231.986 121.813,207.750 119.164 C 205.517 118.920,196.415 118.819,193.917 119.012 " stroke="none" fill="#bc002d" fill-rule="evenodd"></path><path id="path3" d="M198.217 118.791 C 199.208 118.821,200.783 118.821,201.717 118.791 C 202.652 118.761,201.842 118.737,199.917 118.737 C 197.992 118.737,197.227 118.762,198.217 118.791 M194.292 118.954 C 194.590 118.991,195.077 118.991,195.375 118.954 C 195.673 118.917,195.429 118.887,194.833 118.887 C 194.237 118.887,193.994 118.917,194.292 118.954 M204.458 118.954 C 204.756 118.991,205.244 118.991,205.542 118.954 C 205.840 118.917,205.596 118.887,205.000 118.887 C 204.404 118.887,204.160 118.917,204.458 118.954 M192.294 119.118 C 192.501 119.158,192.801 119.156,192.960 119.115 C 193.120 119.073,192.950 119.040,192.583 119.042 C 192.217 119.044,192.086 119.078,192.294 119.118 M206.960 119.118 C 207.168 119.158,207.468 119.156,207.627 119.115 C 207.786 119.073,207.617 119.040,207.250 119.042 C 206.883 119.044,206.753 119.078,206.960 119.118 M208.708 119.282 C 208.869 119.323,209.131 119.323,209.292 119.282 C 209.452 119.240,209.321 119.205,209.000 119.205 C 208.679 119.205,208.548 119.240,208.708 119.282 M210.042 119.448 C 210.202 119.490,210.465 119.490,210.625 119.448 C 210.785 119.406,210.654 119.372,210.333 119.372 C 210.012 119.372,209.881 119.406,210.042 119.448 M222.083 122.000 C 222.267 122.079,222.529 122.143,222.667 122.143 C 222.824 122.143,222.793 122.090,222.583 122.000 C 222.400 121.921,222.137 121.857,222.000 121.857 C 221.842 121.857,221.873 121.910,222.083 122.000 M224.750 122.833 C 225.208 123.002,225.696 123.141,225.833 123.141 C 225.971 123.141,225.708 123.002,225.250 122.833 C 224.792 122.664,224.304 122.526,224.167 122.526 C 224.029 122.526,224.292 122.664,224.750 122.833 M233.167 126.167 C 233.487 126.342,233.825 126.486,233.917 126.486 C 234.008 126.486,233.821 126.342,233.500 126.167 C 233.179 125.991,232.842 125.847,232.750 125.847 C 232.658 125.847,232.846 125.991,233.167 126.167 M166.000 126.333 C 165.679 126.509,165.492 126.653,165.583 126.653 C 165.675 126.653,166.012 126.509,166.333 126.333 C 166.654 126.158,166.842 126.014,166.750 126.014 C 166.658 126.014,166.321 126.158,166.000 126.333 M158.708 130.261 C 158.319 130.495,158.000 130.725,158.000 130.773 C 158.000 130.863,159.124 130.224,159.408 129.973 C 159.695 129.720,159.428 129.830,158.708 130.261 M241.750 130.753 C 241.933 130.902,242.233 131.098,242.417 131.188 L 242.750 131.352 242.417 131.080 C 242.233 130.931,241.933 130.735,241.750 130.645 L 241.417 130.482 241.750 130.753 M246.000 133.561 C 246.000 133.606,246.225 133.804,246.500 134.000 C 246.775 134.196,247.000 134.319,247.000 134.273 C 247.000 134.227,246.775 134.029,246.500 133.833 C 246.225 133.638,246.000 133.515,246.000 133.561 M151.827 135.012 L 151.250 135.524 151.875 135.076 C 152.427 134.679,152.607 134.500,152.452 134.500 C 152.426 134.500,152.144 134.730,151.827 135.012 M251.167 137.552 C 251.167 137.581,251.410 137.825,251.708 138.094 L 252.250 138.583 251.760 138.042 C 251.304 137.537,251.167 137.423,251.167 137.552 M252.917 139.167 C 253.275 139.533,253.605 139.833,253.651 139.833 C 253.697 139.833,253.441 139.533,253.083 139.167 C 252.725 138.800,252.395 138.500,252.349 138.500 C 252.303 138.500,252.559 138.800,252.917 139.167 M146.500 139.417 C 146.095 139.829,145.801 140.167,145.847 140.167 C 145.893 140.167,146.262 139.829,146.667 139.417 C 147.072 139.004,147.365 138.667,147.319 138.667 C 147.274 138.667,146.905 139.004,146.500 139.417 M256.083 142.167 C 257.089 143.175,257.948 144.000,257.994 144.000 C 258.040 144.000,257.255 143.175,256.250 142.167 C 255.245 141.158,254.385 140.333,254.339 140.333 C 254.293 140.333,255.078 141.158,256.083 142.167 M143.497 142.292 L 141.917 143.917 143.542 142.337 C 145.051 140.869,145.242 140.667,145.122 140.667 C 145.097 140.667,144.366 141.398,143.497 142.292 M141.000 144.917 C 140.595 145.329,140.301 145.667,140.347 145.667 C 140.393 145.667,140.762 145.329,141.167 144.917 C 141.572 144.504,141.865 144.167,141.819 144.167 C 141.774 144.167,141.405 144.504,141.000 144.917 M258.917 145.167 C 259.275 145.533,259.605 145.833,259.651 145.833 C 259.697 145.833,259.441 145.533,259.083 145.167 C 258.725 144.800,258.395 144.500,258.349 144.500 C 258.303 144.500,258.559 144.800,258.917 145.167 M139.167 147.000 C 138.690 147.550,138.338 148.000,138.384 148.000 C 138.430 148.000,138.857 147.550,139.333 147.000 C 139.810 146.450,140.162 146.000,140.116 146.000 C 140.070 146.000,139.643 146.450,139.167 147.000 M259.833 146.219 C 259.833 146.248,260.077 146.491,260.375 146.760 L 260.917 147.250 260.427 146.708 C 259.971 146.203,259.833 146.090,259.833 146.219 M134.833 152.583 C 134.550 152.996,134.355 153.333,134.401 153.333 C 134.446 153.333,134.716 152.996,135.000 152.583 C 135.284 152.171,135.479 151.833,135.433 151.833 C 135.387 151.833,135.117 152.171,134.833 152.583 M265.910 154.125 C 266.167 154.515,266.409 154.833,266.448 154.833 C 266.568 154.833,265.930 153.819,265.680 153.612 C 265.550 153.505,265.654 153.735,265.910 154.125 M130.917 158.667 C 130.774 158.942,130.696 159.167,130.741 159.167 C 130.787 159.167,130.941 158.942,131.083 158.667 C 131.226 158.392,131.304 158.167,131.259 158.167 C 131.213 158.167,131.059 158.392,130.917 158.667 M269.333 159.667 C 269.520 160.033,269.711 160.333,269.757 160.333 C 269.803 160.333,269.687 160.033,269.500 159.667 C 269.313 159.300,269.122 159.000,269.077 159.000 C 269.031 159.000,269.146 159.300,269.333 159.667 M130.167 160.000 C 129.980 160.367,129.864 160.667,129.910 160.667 C 129.956 160.667,130.146 160.367,130.333 160.000 C 130.520 159.633,130.636 159.333,130.590 159.333 C 130.544 159.333,130.354 159.633,130.167 160.000 M270.417 161.667 C 270.649 162.125,270.876 162.500,270.922 162.500 C 270.968 162.500,270.816 162.125,270.583 161.667 C 270.351 161.208,270.124 160.833,270.078 160.833 C 270.032 160.833,270.184 161.208,270.417 161.667 M129.000 162.167 C 128.813 162.533,128.697 162.833,128.743 162.833 C 128.789 162.833,128.980 162.533,129.167 162.167 C 129.354 161.800,129.469 161.500,129.423 161.500 C 129.378 161.500,129.187 161.800,129.000 162.167 M272.845 166.583 C 272.845 166.675,272.952 166.938,273.083 167.167 C 273.214 167.396,273.322 167.508,273.322 167.417 C 273.322 167.325,273.214 167.063,273.083 166.833 C 272.952 166.604,272.845 166.492,272.845 166.583 M273.345 167.750 C 273.345 167.842,273.452 168.104,273.583 168.333 C 273.714 168.563,273.822 168.675,273.822 168.583 C 273.822 168.492,273.714 168.229,273.583 168.000 C 273.452 167.771,273.345 167.658,273.345 167.750 M277.190 179.000 C 277.190 179.137,277.255 179.400,277.333 179.583 C 277.424 179.793,277.477 179.824,277.477 179.667 C 277.477 179.529,277.412 179.267,277.333 179.083 C 277.243 178.873,277.190 178.842,277.190 179.000 M277.533 180.250 C 277.533 180.433,277.593 180.771,277.667 181.000 C 277.772 181.330,277.800 181.347,277.800 181.083 C 277.800 180.900,277.740 180.563,277.667 180.333 C 277.561 180.003,277.533 179.986,277.533 180.250 M279.372 190.500 C 279.372 190.821,279.406 190.952,279.448 190.792 C 279.490 190.631,279.490 190.369,279.448 190.208 C 279.406 190.048,279.372 190.179,279.372 190.500 M279.709 193.917 C 279.711 194.283,279.745 194.414,279.785 194.206 C 279.824 193.999,279.823 193.699,279.781 193.540 C 279.739 193.380,279.707 193.550,279.709 193.917 M120.039 194.000 C 120.039 194.321,120.073 194.452,120.115 194.292 C 120.157 194.131,120.157 193.869,120.115 193.708 C 120.073 193.548,120.039 193.679,120.039 194.000 M279.887 196.833 C 279.887 197.429,279.917 197.673,279.954 197.375 C 279.991 197.077,279.991 196.590,279.954 196.292 C 279.917 195.994,279.887 196.237,279.887 196.833 M119.888 197.083 C 119.889 197.725,119.919 197.967,119.955 197.621 C 119.991 197.275,119.990 196.750,119.954 196.455 C 119.917 196.159,119.887 196.442,119.888 197.083 M119.888 202.917 C 119.889 203.558,119.919 203.800,119.955 203.455 C 119.991 203.109,119.990 202.584,119.954 202.288 C 119.917 201.992,119.887 202.275,119.888 202.917 M279.887 203.167 C 279.887 203.762,279.917 204.006,279.954 203.708 C 279.991 203.410,279.991 202.923,279.954 202.625 C 279.917 202.327,279.887 202.571,279.887 203.167 M120.039 206.000 C 120.039 206.321,120.073 206.452,120.115 206.292 C 120.157 206.131,120.157 205.869,120.115 205.708 C 120.073 205.548,120.039 205.679,120.039 206.000 M279.709 206.083 C 279.711 206.450,279.745 206.580,279.785 206.373 C 279.824 206.166,279.823 205.866,279.781 205.706 C 279.739 205.547,279.707 205.717,279.709 206.083 M279.372 209.500 C 279.372 209.821,279.406 209.952,279.448 209.792 C 279.490 209.631,279.490 209.369,279.448 209.208 C 279.406 209.048,279.372 209.179,279.372 209.500 M277.262 220.595 C 277.201 220.839,277.183 221.071,277.222 221.111 C 277.261 221.150,277.343 220.982,277.405 220.738 C 277.466 220.494,277.484 220.262,277.445 220.223 C 277.406 220.183,277.323 220.351,277.262 220.595 M273.527 231.757 C 273.248 232.370,273.301 232.501,273.603 231.944 C 273.744 231.683,273.828 231.439,273.790 231.401 C 273.752 231.363,273.634 231.523,273.527 231.757 M273.027 232.924 C 272.748 233.537,272.801 233.667,273.103 233.110 C 273.244 232.850,273.328 232.606,273.290 232.568 C 273.252 232.530,273.134 232.690,273.027 232.924 M126.678 232.917 C 126.678 233.008,126.786 233.271,126.917 233.500 C 127.048 233.729,127.155 233.842,127.155 233.750 C 127.155 233.658,127.048 233.396,126.917 233.167 C 126.786 232.938,126.678 232.825,126.678 232.917 M270.417 238.333 C 270.184 238.792,270.032 239.167,270.078 239.167 C 270.124 239.167,270.351 238.792,270.583 238.333 C 270.816 237.875,270.968 237.500,270.922 237.500 C 270.876 237.500,270.649 237.875,270.417 238.333 M130.167 240.000 C 130.354 240.367,130.544 240.667,130.590 240.667 C 130.636 240.667,130.520 240.367,130.333 240.000 C 130.146 239.633,129.956 239.333,129.910 239.333 C 129.864 239.333,129.980 239.633,130.167 240.000 M269.333 240.333 C 269.146 240.700,269.031 241.000,269.077 241.000 C 269.122 241.000,269.313 240.700,269.500 240.333 C 269.687 239.967,269.803 239.667,269.757 239.667 C 269.711 239.667,269.520 239.967,269.333 240.333 M130.917 241.333 C 131.059 241.608,131.213 241.833,131.259 241.833 C 131.304 241.833,131.226 241.608,131.083 241.333 C 130.941 241.058,130.787 240.833,130.741 240.833 C 130.696 240.833,130.774 241.058,130.917 241.333 M265.940 245.833 C 265.513 246.475,265.199 247.000,265.242 247.000 C 265.286 247.000,265.611 246.569,265.965 246.042 C 266.749 244.874,266.873 244.667,266.784 244.667 C 266.746 244.667,266.366 245.192,265.940 245.833 M134.667 247.167 C 134.862 247.442,135.060 247.667,135.106 247.667 C 135.152 247.667,135.029 247.442,134.833 247.167 C 134.638 246.892,134.440 246.667,134.394 246.667 C 134.348 246.667,134.471 246.892,134.667 247.167 M137.000 250.333 C 137.290 250.700,137.566 251.000,137.611 251.000 C 137.657 251.000,137.457 250.700,137.167 250.333 C 136.876 249.967,136.601 249.667,136.555 249.667 C 136.509 249.667,136.710 249.967,137.000 250.333 M260.240 253.375 L 259.750 253.917 260.292 253.427 C 260.797 252.971,260.910 252.833,260.781 252.833 C 260.752 252.833,260.509 253.077,260.240 253.375 M258.909 254.875 L 258.250 255.583 258.958 254.925 C 259.617 254.312,259.743 254.167,259.617 254.167 C 259.590 254.167,259.271 254.485,258.909 254.875 M140.993 255.042 C 141.684 255.778,141.833 255.910,141.833 255.785 C 141.833 255.758,141.477 255.402,141.042 254.993 L 140.250 254.250 140.993 255.042 M256.164 257.792 L 254.250 259.750 256.208 257.836 C 257.285 256.783,258.167 255.902,258.167 255.878 C 258.167 255.758,257.942 255.973,256.164 257.792 M143.500 257.750 C 144.367 258.621,145.114 259.333,145.160 259.333 C 145.206 259.333,144.534 258.621,143.667 257.750 C 142.799 256.879,142.052 256.167,142.007 256.167 C 141.961 256.167,142.633 256.879,143.500 257.750 M146.417 260.500 C 146.868 260.958,147.275 261.333,147.321 261.333 C 147.367 261.333,147.035 260.958,146.583 260.500 C 146.132 260.042,145.725 259.667,145.679 259.667 C 145.633 259.667,145.965 260.042,146.417 260.500 M252.909 260.875 L 252.250 261.583 252.958 260.925 C 253.617 260.312,253.743 260.167,253.617 260.167 C 253.590 260.167,253.271 260.485,252.909 260.875 M152.167 265.227 C 152.167 265.273,152.392 265.471,152.667 265.667 C 152.942 265.862,153.167 265.985,153.167 265.939 C 153.167 265.894,152.942 265.696,152.667 265.500 C 152.392 265.304,152.167 265.181,152.167 265.227 M246.417 266.098 L 245.917 266.528 246.458 266.169 C 246.756 265.972,247.000 265.778,247.000 265.739 C 247.000 265.614,246.929 265.657,246.417 266.098 M160.500 270.741 C 160.500 270.787,160.725 270.941,161.000 271.083 C 161.275 271.226,161.500 271.304,161.500 271.259 C 161.500 271.213,161.275 271.059,161.000 270.917 C 160.725 270.774,160.500 270.696,160.500 270.741 M166.333 273.833 C 166.654 274.009,166.992 274.153,167.083 274.153 C 167.175 274.153,166.987 274.009,166.667 273.833 C 166.346 273.658,166.008 273.514,165.917 273.514 C 165.825 273.514,166.012 273.658,166.333 273.833 M233.167 273.833 C 232.846 274.009,232.658 274.153,232.750 274.153 C 232.842 274.153,233.179 274.009,233.500 273.833 C 233.821 273.658,234.008 273.514,233.917 273.514 C 233.825 273.514,233.487 273.658,233.167 273.833 M174.833 277.250 C 175.154 277.374,175.529 277.475,175.667 277.475 C 175.804 277.475,175.654 277.374,175.333 277.250 C 175.012 277.126,174.637 277.025,174.500 277.025 C 174.362 277.025,174.512 277.126,174.833 277.250 M224.583 277.244 C 223.940 277.539,224.239 277.543,225.000 277.250 C 225.321 277.126,225.471 277.023,225.333 277.020 C 225.196 277.017,224.858 277.118,224.583 277.244 M177.250 278.000 C 177.433 278.079,177.696 278.143,177.833 278.143 C 177.991 278.143,177.960 278.090,177.750 278.000 C 177.567 277.921,177.304 277.857,177.167 277.857 C 177.009 277.857,177.040 277.910,177.250 278.000 M208.708 280.782 C 208.869 280.823,209.131 280.823,209.292 280.782 C 209.452 280.740,209.321 280.705,209.000 280.705 C 208.679 280.705,208.548 280.740,208.708 280.782 M192.042 280.948 C 192.202 280.990,192.465 280.990,192.625 280.948 C 192.785 280.906,192.654 280.872,192.333 280.872 C 192.012 280.872,191.881 280.906,192.042 280.948 M207.208 280.948 C 207.369 280.990,207.631 280.990,207.792 280.948 C 207.952 280.906,207.821 280.872,207.500 280.872 C 207.179 280.872,207.048 280.906,207.208 280.948 M194.208 281.119 C 194.460 281.158,194.873 281.158,195.125 281.119 C 195.377 281.081,195.171 281.050,194.667 281.050 C 194.162 281.050,193.956 281.081,194.208 281.119 M204.708 281.119 C 204.960 281.158,205.373 281.158,205.625 281.119 C 205.877 281.081,205.671 281.050,205.167 281.050 C 204.662 281.050,204.456 281.081,204.708 281.119 M198.292 281.291 C 199.231 281.321,200.769 281.321,201.708 281.291 C 202.648 281.261,201.879 281.237,200.000 281.237 C 198.121 281.237,197.352 281.261,198.292 281.291 " stroke="none" fill="#ce4667" fill-rule="evenodd"></path><path id="path4" d="M1.411 65.875 C 1.367 65.990,1.351 126.421,1.374 200.167 L 1.417 334.250 199.908 334.292 C 309.079 334.315,398.456 334.277,398.525 334.208 C 398.594 334.140,309.291 334.102,200.075 334.125 L 1.500 334.167 1.500 200.000 L 1.500 65.833 200.067 65.875 C 309.279 65.898,398.600 65.860,398.558 65.792 C 398.412 65.557,1.500 65.640,1.411 65.875 M198.633 118.624 C 199.394 118.655,200.594 118.655,201.300 118.624 C 202.006 118.593,201.383 118.567,199.917 118.567 C 198.450 118.568,197.872 118.593,198.633 118.624 M194.460 118.785 C 194.668 118.824,194.968 118.823,195.127 118.781 C 195.286 118.739,195.117 118.707,194.750 118.709 C 194.383 118.711,194.253 118.745,194.460 118.785 M204.794 118.785 C 205.001 118.824,205.301 118.823,205.460 118.781 C 205.620 118.739,205.450 118.707,205.083 118.709 C 204.717 118.711,204.586 118.745,204.794 118.785 M256.167 142.083 C 257.218 143.137,258.115 144.000,258.161 144.000 C 258.207 144.000,257.385 143.137,256.333 142.083 C 255.282 141.029,254.385 140.167,254.339 140.167 C 254.293 140.167,255.115 141.029,256.167 142.083 M143.414 142.208 L 141.750 143.917 143.458 142.253 C 144.398 141.338,145.167 140.569,145.167 140.545 C 145.167 140.424,144.959 140.622,143.414 142.208 M279.879 194.333 C 279.879 194.746,279.911 194.915,279.951 194.708 C 279.991 194.502,279.991 194.165,279.951 193.958 C 279.911 193.752,279.879 193.921,279.879 194.333 M119.875 194.583 C 119.877 194.950,119.911 195.080,119.951 194.873 C 119.991 194.666,119.990 194.366,119.948 194.206 C 119.906 194.047,119.874 194.217,119.875 194.583 M280.064 200.000 C 280.064 201.146,280.091 201.615,280.123 201.042 C 280.156 200.469,280.156 199.531,280.123 198.958 C 280.091 198.385,280.064 198.854,280.064 200.000 M119.725 200.000 C 119.725 200.779,119.754 201.098,119.789 200.708 C 119.824 200.319,119.824 199.681,119.789 199.292 C 119.754 198.902,119.725 199.221,119.725 200.000 M119.875 205.417 C 119.877 205.783,119.911 205.914,119.951 205.706 C 119.991 205.499,119.990 205.199,119.948 205.040 C 119.906 204.880,119.874 205.050,119.875 205.417 M279.879 205.667 C 279.879 206.079,279.911 206.248,279.951 206.042 C 279.991 205.835,279.991 205.498,279.951 205.292 C 279.911 205.085,279.879 205.254,279.879 205.667 M256.250 257.833 C 255.153 258.933,254.293 259.833,254.339 259.833 C 254.384 259.833,255.320 258.933,256.417 257.833 C 257.514 256.733,258.374 255.833,258.328 255.833 C 258.282 255.833,257.347 256.733,256.250 257.833 M143.497 257.875 C 144.458 258.860,145.264 259.667,145.289 259.667 C 145.409 259.667,145.206 259.453,143.542 257.830 L 141.750 256.083 143.497 257.875 M194.460 281.285 C 194.668 281.324,194.968 281.323,195.127 281.281 C 195.286 281.239,195.117 281.207,194.750 281.209 C 194.383 281.211,194.253 281.245,194.460 281.285 M204.794 281.285 C 205.001 281.324,205.301 281.323,205.460 281.281 C 205.620 281.239,205.450 281.207,205.083 281.209 C 204.717 281.211,204.586 281.245,204.794 281.285 M198.550 281.458 C 199.356 281.488,200.631 281.488,201.383 281.457 C 202.135 281.426,201.475 281.401,199.917 281.402 C 198.358 281.402,197.743 281.427,198.550 281.458 " stroke="none" fill="#f6dde3" fill-rule="evenodd"></path></g></svg>