<svg id="svg" version="1.1" width="400" height="400" viewBox="0 0 400 400" xmlns="http://www.w3.org/2000/svg" xmlns:xlink="http://www.w3.org/1999/xlink" ><g id="svgg"><path id="path0" d="M0.000 200.000 L 0.000 335.667 200.000 335.667 L 400.000 335.667 400.000 200.000 L 400.000 64.333 200.000 64.333 L 0.000 64.333 0.000 200.000 M206.283 118.842 C 242.971 121.859,273.269 150.164,279.062 186.833 C 280.490 195.875,280.302 207.005,278.570 215.858 C 272.048 249.195,245.815 274.868,212.696 280.324 C 207.531 281.175,206.495 281.250,199.917 281.250 C 193.499 281.250,192.555 281.185,187.667 280.409 C 153.217 274.937,125.865 247.281,120.752 212.750 C 120.009 207.731,119.917 206.323,119.917 200.000 C 119.917 152.384,159.689 115.011,206.283 118.842 " stroke="none" fill="#ffffff" fill-rule="evenodd"></path><path id="path1" d="M194.833 119.017 C 170.616 120.467,148.058 133.442,134.109 153.944 C 121.259 172.832,116.845 196.816,122.173 218.810 C 132.908 263.131,176.474 289.905,219.583 278.675 C 273.334 264.671,297.177 200.900,266.049 154.395 C 250.105 130.575,223.395 117.306,194.833 119.017 " stroke="none" fill="#bc002d" fill-rule="evenodd"></path><path id="path2" d="M195.628 118.954 C 195.928 118.991,196.378 118.990,196.628 118.952 C 196.878 118.914,196.633 118.884,196.083 118.885 C 195.533 118.886,195.328 118.917,195.628 118.954 M203.295 118.954 C 203.594 118.991,204.044 118.990,204.295 118.952 C 204.545 118.914,204.300 118.884,203.750 118.885 C 203.200 118.886,202.995 118.917,203.295 118.954 M193.042 119.115 C 193.202 119.157,193.465 119.157,193.625 119.115 C 193.785 119.073,193.654 119.039,193.333 119.039 C 193.012 119.039,192.881 119.073,193.042 119.115 M206.208 119.115 C 206.369 119.157,206.631 119.157,206.792 119.115 C 206.952 119.073,206.821 119.039,206.500 119.039 C 206.179 119.039,206.048 119.073,206.208 119.115 M253.833 140.083 C 254.144 140.404,254.436 140.667,254.482 140.667 C 254.528 140.667,254.311 140.404,254.000 140.083 C 253.689 139.762,253.397 139.500,253.351 139.500 C 253.305 139.500,253.522 139.762,253.833 140.083 M145.658 140.292 L 145.083 140.917 145.708 140.342 C 146.290 139.808,146.410 139.667,146.283 139.667 C 146.255 139.667,145.974 139.948,145.658 140.292 M142.244 143.708 L 141.417 144.583 142.292 143.756 C 143.105 142.988,143.243 142.833,143.119 142.833 C 143.092 142.833,142.699 143.227,142.244 143.708 M279.872 198.000 C 279.872 198.321,279.906 198.452,279.948 198.292 C 279.990 198.131,279.990 197.869,279.948 197.708 C 279.906 197.548,279.872 197.679,279.872 198.000 M119.900 200.000 C 119.900 201.329,119.925 201.873,119.957 201.208 C 119.989 200.544,119.989 199.456,119.957 198.792 C 119.925 198.127,119.900 198.671,119.900 200.000 M279.872 202.000 C 279.872 202.321,279.906 202.452,279.948 202.292 C 279.990 202.131,279.990 201.869,279.948 201.708 C 279.906 201.548,279.872 201.679,279.872 202.000 M145.167 259.219 C 145.167 259.248,145.410 259.491,145.708 259.760 L 146.250 260.250 145.760 259.708 C 145.304 259.203,145.167 259.090,145.167 259.219 M253.824 259.958 L 253.250 260.583 253.875 260.009 C 254.219 259.693,254.500 259.412,254.500 259.384 C 254.500 259.257,254.359 259.377,253.824 259.958 M195.295 281.121 C 195.594 281.158,196.044 281.157,196.295 281.119 C 196.545 281.081,196.300 281.051,195.750 281.052 C 195.200 281.053,194.995 281.084,195.295 281.121 M203.628 281.121 C 203.928 281.158,204.378 281.157,204.628 281.119 C 204.878 281.081,204.633 281.051,204.083 281.052 C 203.533 281.053,203.328 281.084,203.628 281.121 " stroke="none" fill="#c42248" fill-rule="evenodd"></path><path id="path3" d="M198.384 118.791 C 199.282 118.821,200.707 118.821,201.550 118.791 C 202.393 118.761,201.658 118.736,199.917 118.736 C 198.175 118.736,197.485 118.761,198.384 118.791 M194.294 118.951 C 194.501 118.991,194.801 118.990,194.960 118.948 C 195.120 118.906,194.950 118.874,194.583 118.875 C 194.217 118.877,194.086 118.911,194.294 118.951 M204.960 118.951 C 205.168 118.991,205.468 118.990,205.627 118.948 C 205.786 118.906,205.617 118.874,205.250 118.875 C 204.883 118.877,204.753 118.911,204.960 118.951 M256.167 142.250 C 257.034 143.121,257.781 143.833,257.827 143.833 C 257.873 143.833,257.201 143.121,256.333 142.250 C 255.466 141.379,254.719 140.667,254.673 140.667 C 254.627 140.667,255.299 141.379,256.167 142.250 M143.579 142.208 L 142.417 143.417 143.625 142.254 C 144.747 141.175,144.909 141.000,144.787 141.000 C 144.762 141.000,144.218 141.544,143.579 142.208 M140.906 145.042 L 140.417 145.583 140.958 145.094 C 141.256 144.825,141.500 144.581,141.500 144.552 C 141.500 144.423,141.362 144.537,140.906 145.042 M258.500 144.719 C 258.500 144.748,258.744 144.991,259.042 145.260 L 259.583 145.750 259.094 145.208 C 258.638 144.703,258.500 144.590,258.500 144.719 M279.881 196.750 C 279.882 197.208,279.915 197.376,279.953 197.123 C 279.991 196.869,279.990 196.494,279.951 196.289 C 279.911 196.084,279.880 196.292,279.881 196.750 M119.879 197.000 C 119.879 197.412,119.911 197.581,119.951 197.375 C 119.991 197.169,119.991 196.831,119.951 196.625 C 119.911 196.419,119.879 196.588,119.879 197.000 M119.879 203.000 C 119.879 203.412,119.911 203.581,119.951 203.375 C 119.991 203.169,119.991 202.831,119.951 202.625 C 119.911 202.419,119.879 202.588,119.879 203.000 M279.881 203.250 C 279.882 203.708,279.915 203.876,279.953 203.623 C 279.991 203.369,279.990 202.994,279.951 202.789 C 279.911 202.584,279.880 202.792,279.881 203.250 M258.906 254.875 L 258.417 255.417 258.958 254.927 C 259.463 254.471,259.577 254.333,259.448 254.333 C 259.419 254.333,259.175 254.577,258.906 254.875 M140.500 254.552 C 140.500 254.581,140.744 254.825,141.042 255.094 L 141.583 255.583 141.094 255.042 C 140.638 254.537,140.500 254.423,140.500 254.552 M256.164 257.792 L 254.417 259.583 256.208 257.836 C 257.194 256.875,258.000 256.069,258.000 256.045 C 258.000 255.924,257.786 256.128,256.164 257.792 M143.583 257.833 C 144.312 258.567,144.946 259.167,144.992 259.167 C 145.038 259.167,144.479 258.567,143.750 257.833 C 143.021 257.100,142.387 256.500,142.341 256.500 C 142.295 256.500,142.854 257.100,143.583 257.833 M146.167 260.219 C 146.167 260.248,146.410 260.491,146.708 260.760 L 147.250 261.250 146.760 260.708 C 146.304 260.203,146.167 260.090,146.167 260.219 M252.740 261.042 L 252.250 261.583 252.792 261.094 C 253.297 260.638,253.410 260.500,253.281 260.500 C 253.252 260.500,253.009 260.744,252.740 261.042 M194.042 281.115 C 194.202 281.157,194.465 281.157,194.625 281.115 C 194.785 281.073,194.654 281.039,194.333 281.039 C 194.012 281.039,193.881 281.073,194.042 281.115 M205.208 281.115 C 205.369 281.157,205.631 281.157,205.792 281.115 C 205.952 281.073,205.821 281.039,205.500 281.039 C 205.179 281.039,205.048 281.073,205.208 281.115 M198.384 281.291 C 199.282 281.321,200.707 281.321,201.550 281.291 C 202.393 281.261,201.658 281.236,199.917 281.236 C 198.175 281.236,197.485 281.261,198.384 281.291 " stroke="none" fill="#ce4667" fill-rule="evenodd"></path><path id="path4" d="M195.461 118.787 C 195.761 118.825,196.211 118.824,196.461 118.786 C 196.712 118.748,196.467 118.717,195.917 118.718 C 195.367 118.719,195.162 118.750,195.461 118.787 M203.458 118.787 C 203.756 118.824,204.244 118.824,204.542 118.787 C 204.840 118.750,204.596 118.720,204.000 118.720 C 203.404 118.720,203.160 118.750,203.458 118.787 M193.127 118.951 C 193.334 118.991,193.634 118.990,193.794 118.948 C 193.953 118.906,193.783 118.874,193.417 118.875 C 193.050 118.877,192.920 118.911,193.127 118.951 M206.125 118.951 C 206.331 118.991,206.669 118.991,206.875 118.951 C 207.081 118.911,206.912 118.879,206.500 118.879 C 206.088 118.879,205.919 118.911,206.125 118.951 M191.375 119.115 C 191.535 119.157,191.798 119.157,191.958 119.115 C 192.119 119.073,191.987 119.039,191.667 119.039 C 191.346 119.039,191.215 119.073,191.375 119.115 M208.042 119.115 C 208.202 119.157,208.465 119.157,208.625 119.115 C 208.785 119.073,208.654 119.039,208.333 119.039 C 208.012 119.039,207.881 119.073,208.042 119.115 M220.083 121.333 C 220.267 121.412,220.529 121.477,220.667 121.477 C 220.824 121.477,220.793 121.424,220.583 121.333 C 220.400 121.255,220.137 121.190,220.000 121.190 C 219.842 121.190,219.873 121.243,220.083 121.333 M166.833 125.833 C 166.512 126.009,166.325 126.153,166.417 126.153 C 166.508 126.153,166.846 126.009,167.167 125.833 C 167.487 125.658,167.675 125.514,167.583 125.514 C 167.492 125.514,167.154 125.658,166.833 125.833 M232.500 125.750 C 232.729 125.881,232.992 125.988,233.083 125.988 C 233.175 125.988,233.063 125.881,232.833 125.750 C 232.604 125.619,232.342 125.512,232.250 125.512 C 232.158 125.512,232.271 125.619,232.500 125.750 M160.792 128.929 C 160.169 129.267,160.207 129.407,160.833 129.083 C 161.108 128.941,161.333 128.789,161.333 128.746 C 161.333 128.638,161.315 128.645,160.792 128.929 M238.833 128.908 C 238.833 128.954,239.058 129.108,239.333 129.250 C 239.608 129.392,239.833 129.471,239.833 129.425 C 239.833 129.379,239.608 129.226,239.333 129.083 C 239.058 128.941,238.833 128.862,238.833 128.908 M159.625 129.595 C 159.002 129.933,159.040 130.074,159.667 129.750 C 159.942 129.608,160.167 129.456,160.167 129.412 C 160.167 129.305,160.149 129.311,159.625 129.595 M246.167 133.561 C 246.167 133.606,246.392 133.804,246.667 134.000 C 246.942 134.196,247.167 134.319,247.167 134.273 C 247.167 134.227,246.942 134.029,246.667 133.833 C 246.392 133.638,246.167 133.515,246.167 133.561 M251.500 137.719 C 251.500 137.748,251.744 137.991,252.042 138.260 L 252.583 138.750 252.094 138.208 C 251.638 137.703,251.500 137.590,251.500 137.719 M147.573 138.375 L 147.083 138.917 147.625 138.427 C 147.923 138.158,148.167 137.914,148.167 137.885 C 148.167 137.757,148.029 137.870,147.573 138.375 M253.667 139.750 C 254.165 140.254,254.609 140.667,254.655 140.667 C 254.701 140.667,254.331 140.254,253.833 139.750 C 253.335 139.246,252.891 138.833,252.845 138.833 C 252.799 138.833,253.169 139.246,253.667 139.750 M145.745 140.042 L 144.750 141.083 145.792 140.089 C 146.365 139.541,146.833 139.073,146.833 139.047 C 146.833 138.924,146.669 139.074,145.745 140.042 M141.577 144.208 L 140.750 145.083 141.625 144.256 C 142.106 143.801,142.500 143.408,142.500 143.381 C 142.500 143.257,142.346 143.395,141.577 144.208 M258.493 144.542 C 259.184 145.278,259.333 145.410,259.333 145.285 C 259.333 145.258,258.977 144.902,258.542 144.493 L 257.750 143.750 258.493 144.542 M139.906 146.042 L 139.417 146.583 139.958 146.094 C 140.256 145.825,140.500 145.581,140.500 145.552 C 140.500 145.423,140.362 145.537,139.906 146.042 M259.500 145.719 C 259.500 145.748,259.744 145.991,260.042 146.260 L 260.583 146.750 260.094 146.208 C 259.638 145.703,259.500 145.590,259.500 145.719 M266.244 154.458 C 266.501 154.848,266.743 155.167,266.782 155.167 C 266.902 155.167,266.264 154.152,266.013 153.946 C 265.883 153.838,265.987 154.069,266.244 154.458 M270.083 160.833 C 270.226 161.108,270.379 161.333,270.425 161.333 C 270.471 161.333,270.392 161.108,270.250 160.833 C 270.108 160.558,269.954 160.333,269.908 160.333 C 269.862 160.333,269.941 160.558,270.083 160.833 M129.167 161.667 C 128.889 162.217,128.699 162.667,128.745 162.667 C 128.791 162.667,129.056 162.217,129.333 161.667 C 129.611 161.117,129.801 160.667,129.755 160.667 C 129.709 160.667,129.444 161.117,129.167 161.667 M279.539 191.167 C 279.539 191.487,279.573 191.619,279.615 191.458 C 279.657 191.298,279.657 191.035,279.615 190.875 C 279.573 190.715,279.539 190.846,279.539 191.167 M279.712 192.833 C 279.712 193.246,279.745 193.415,279.784 193.208 C 279.824 193.002,279.824 192.665,279.784 192.458 C 279.745 192.252,279.712 192.421,279.712 192.833 M120.039 193.167 C 120.039 193.487,120.073 193.619,120.115 193.458 C 120.157 193.298,120.157 193.035,120.115 192.875 C 120.073 192.715,120.039 192.846,120.039 193.167 M279.879 195.333 C 279.879 195.746,279.911 195.915,279.951 195.708 C 279.991 195.502,279.991 195.165,279.951 194.958 C 279.911 194.752,279.879 194.921,279.879 195.333 M119.879 195.667 C 119.879 196.079,119.911 196.248,119.951 196.042 C 119.991 195.835,119.991 195.498,119.951 195.292 C 119.911 195.085,119.879 195.254,119.879 195.667 M119.879 204.333 C 119.879 204.746,119.911 204.915,119.951 204.708 C 119.991 204.502,119.991 204.165,119.951 203.958 C 119.911 203.752,119.879 203.921,119.879 204.333 M279.881 204.750 C 279.882 205.208,279.915 205.376,279.953 205.123 C 279.991 204.869,279.990 204.494,279.951 204.289 C 279.911 204.084,279.880 204.292,279.881 204.750 M120.039 206.833 C 120.039 207.154,120.073 207.285,120.115 207.125 C 120.157 206.965,120.157 206.702,120.115 206.542 C 120.073 206.381,120.039 206.512,120.039 206.833 M279.712 207.167 C 279.712 207.579,279.745 207.748,279.784 207.542 C 279.824 207.335,279.824 206.998,279.784 206.792 C 279.745 206.585,279.712 206.754,279.712 207.167 M129.250 238.500 C 129.482 238.958,129.710 239.333,129.756 239.333 C 129.801 239.333,129.649 238.958,129.417 238.500 C 129.184 238.042,128.957 237.667,128.911 237.667 C 128.865 237.667,129.018 238.042,129.250 238.500 M270.083 239.167 C 269.941 239.442,269.862 239.667,269.908 239.667 C 269.954 239.667,270.108 239.442,270.250 239.167 C 270.392 238.892,270.471 238.667,270.425 238.667 C 270.379 238.667,270.226 238.892,270.083 239.167 M266.244 245.542 C 265.987 245.931,265.883 246.162,266.013 246.054 C 266.264 245.848,266.902 244.833,266.782 244.833 C 266.743 244.833,266.501 245.152,266.244 245.542 M259.906 253.875 L 259.417 254.417 259.958 253.927 C 260.463 253.471,260.577 253.333,260.448 253.333 C 260.419 253.333,260.175 253.577,259.906 253.875 M139.500 253.552 C 139.500 253.581,139.744 253.825,140.042 254.094 L 140.583 254.583 140.094 254.042 C 139.638 253.537,139.500 253.423,139.500 253.552 M258.667 255.250 C 258.262 255.662,257.968 256.000,258.014 256.000 C 258.060 256.000,258.428 255.662,258.833 255.250 C 259.238 254.838,259.532 254.500,259.486 254.500 C 259.440 254.500,259.072 254.838,258.667 255.250 M141.417 255.667 C 141.868 256.125,142.275 256.500,142.321 256.500 C 142.367 256.500,142.035 256.125,141.583 255.667 C 141.132 255.208,140.725 254.833,140.679 254.833 C 140.633 254.833,140.965 255.208,141.417 255.667 M255.995 258.125 L 254.917 259.250 256.042 258.171 C 257.087 257.170,257.243 257.000,257.120 257.000 C 257.095 257.000,256.588 257.506,255.995 258.125 M145.833 260.083 C 146.331 260.587,146.776 261.000,146.822 261.000 C 146.868 261.000,146.498 260.587,146.000 260.083 C 145.502 259.579,145.057 259.167,145.011 259.167 C 144.966 259.167,145.335 259.579,145.833 260.083 M253.577 260.375 L 252.750 261.250 253.625 260.423 C 254.106 259.968,254.500 259.574,254.500 259.548 C 254.500 259.424,254.346 259.562,253.577 260.375 M147.167 261.219 C 147.167 261.248,147.410 261.491,147.708 261.760 L 148.250 262.250 147.760 261.708 C 147.304 261.203,147.167 261.090,147.167 261.219 M148.333 262.219 C 148.333 262.248,148.577 262.491,148.875 262.760 L 149.417 263.250 148.927 262.708 C 148.471 262.203,148.333 262.090,148.333 262.219 M246.583 266.098 L 246.083 266.528 246.625 266.169 C 246.923 265.972,247.167 265.778,247.167 265.739 C 247.167 265.614,247.096 265.657,246.583 266.098 M239.292 270.762 C 238.669 271.100,238.707 271.241,239.333 270.917 C 239.608 270.774,239.833 270.623,239.833 270.579 C 239.833 270.472,239.815 270.478,239.292 270.762 M167.000 274.250 C 167.229 274.381,167.492 274.488,167.583 274.488 C 167.675 274.488,167.563 274.381,167.333 274.250 C 167.104 274.119,166.842 274.012,166.750 274.012 C 166.658 274.012,166.771 274.119,167.000 274.250 M232.167 274.417 C 231.938 274.548,231.825 274.655,231.917 274.655 C 232.008 274.655,232.271 274.548,232.500 274.417 C 232.729 274.286,232.842 274.178,232.750 274.178 C 232.658 274.178,232.396 274.286,232.167 274.417 M231.000 274.917 C 230.771 275.048,230.658 275.155,230.750 275.155 C 230.842 275.155,231.104 275.048,231.333 274.917 C 231.563 274.786,231.675 274.678,231.583 274.678 C 231.492 274.678,231.229 274.786,231.000 274.917 M208.042 280.948 C 208.202 280.990,208.465 280.990,208.625 280.948 C 208.785 280.906,208.654 280.872,208.333 280.872 C 208.012 280.872,207.881 280.906,208.042 280.948 M192.960 281.118 C 193.168 281.158,193.468 281.156,193.627 281.115 C 193.786 281.073,193.617 281.040,193.250 281.042 C 192.883 281.044,192.753 281.078,192.960 281.118 M206.294 281.118 C 206.501 281.158,206.801 281.156,206.960 281.115 C 207.120 281.073,206.950 281.040,206.583 281.042 C 206.217 281.044,206.086 281.078,206.294 281.118 M195.461 281.287 C 195.761 281.325,196.211 281.324,196.461 281.286 C 196.712 281.248,196.467 281.217,195.917 281.218 C 195.367 281.219,195.162 281.250,195.461 281.287 M203.461 281.287 C 203.761 281.325,204.211 281.324,204.461 281.286 C 204.712 281.248,204.467 281.217,203.917 281.218 C 203.367 281.219,203.162 281.250,203.461 281.287 " stroke="none" fill="#e9adbb" fill-rule="evenodd"></path></g></svg>