<svg id="svg" version="1.1" width="400" height="400" viewBox="0 0 400 400" xmlns="http://www.w3.org/2000/svg" xmlns:xlink="http://www.w3.org/1999/xlink" ><g id="svgg"><path id="path0" d="M200.111 83.944 C 200.050 84.005,200.000 88.356,200.000 93.611 L 200.000 103.167 300.001 103.167 L 400.003 103.167 399.960 93.542 L 399.917 83.917 300.070 83.875 C 245.154 83.852,200.172 83.883,200.111 83.944 M200.000 132.250 L 200.000 141.833 300.000 141.833 L 400.000 141.833 400.000 132.250 L 400.000 122.667 300.000 122.667 L 200.000 122.667 200.000 132.250 M200.040 170.958 L 200.083 180.583 300.000 180.583 L 399.917 180.583 399.960 170.958 L 400.003 161.333 300.000 161.333 L 199.997 161.333 200.040 170.958 M200.000 209.667 L 200.000 219.333 300.000 219.333 L 400.000 219.333 400.000 209.667 L 400.000 200.000 300.000 200.000 L 200.000 200.000 200.000 209.667 M0.000 248.417 L 0.000 258.000 200.000 258.000 L 400.000 258.000 400.000 248.417 L 400.000 238.833 200.000 238.833 L 0.000 238.833 0.000 248.417 M0.000 287.083 L 0.000 296.667 200.000 296.667 L 400.000 296.667 400.000 287.083 L 400.000 277.500 200.000 277.500 L 0.000 277.500 0.000 287.083 M0.000 325.917 L 0.000 335.667 200.000 335.667 L 400.000 335.667 400.000 325.917 L 400.000 316.167 200.000 316.167 L 0.000 316.167 0.000 325.917 " stroke="none" fill="#ffffff" fill-rule="evenodd"></path><path id="path1" d="M0.000 141.833 L 0.000 219.333 100.000 219.333 L 200.000 219.333 200.000 141.833 L 200.000 64.333 100.000 64.333 L 0.000 64.333 0.000 141.833 M86.366 84.082 C 92.400 84.878,98.089 87.253,103.121 91.076 C 104.899 92.426,106.396 93.742,106.000 93.606 C 105.862 93.559,104.906 93.176,103.875 92.756 C 76.801 81.723,50.460 113.924,55.685 151.667 C 59.811 181.465,82.718 200.254,104.050 191.338 C 105.794 190.610,105.769 190.713,103.845 192.216 C 78.960 211.654,46.957 193.042,40.426 155.333 C 33.712 116.571,57.147 80.225,86.366 84.082 M125.826 98.593 C 126.193 101.246,126.982 106.979,127.580 111.333 C 128.895 120.918,128.766 120.275,129.201 119.417 C 129.386 119.050,130.418 117.175,131.493 115.250 C 134.614 109.665,137.507 104.460,139.090 101.583 C 140.527 98.972,141.152 98.015,140.939 98.750 C 140.786 99.281,139.908 103.465,138.667 109.583 C 138.035 112.700,137.099 117.230,136.587 119.651 C 136.075 122.072,135.679 124.119,135.706 124.201 C 135.733 124.284,136.655 123.715,137.753 122.937 C 138.851 122.159,140.537 120.965,141.500 120.283 C 144.198 118.372,153.126 112.145,153.484 111.926 C 153.791 111.737,154.834 110.122,144.463 125.893 C 142.181 129.363,140.337 132.217,140.365 132.235 C 140.393 132.253,144.879 132.022,150.333 131.722 C 155.787 131.422,160.362 131.195,160.500 131.216 C 160.637 131.238,157.862 132.898,154.333 134.906 C 146.850 139.163,142.103 141.871,142.036 141.921 C 142.009 141.941,143.284 142.708,144.869 143.626 C 147.497 145.149,158.256 151.329,159.967 152.299 C 160.361 152.522,160.660 152.729,160.630 152.759 C 160.600 152.789,156.049 152.553,150.517 152.233 C 144.985 151.914,140.427 151.684,140.389 151.722 C 140.326 151.785,141.888 154.195,150.818 167.825 C 152.287 170.067,153.458 171.930,153.422 171.967 C 153.386 172.003,152.845 171.673,152.220 171.234 C 149.336 169.206,140.882 163.223,137.952 161.136 C 136.688 160.236,135.628 159.500,135.597 159.500 C 135.565 159.500,135.828 160.869,136.182 162.542 C 136.535 164.215,137.545 169.146,138.425 173.500 C 139.306 177.854,140.209 182.272,140.432 183.317 C 140.656 184.362,140.809 185.246,140.774 185.282 C 140.700 185.355,139.233 182.769,135.412 175.833 C 129.466 165.040,128.750 163.776,128.713 164.008 C 128.580 164.848,126.719 178.150,125.987 183.500 C 125.503 187.029,125.061 189.973,125.004 190.042 C 124.903 190.163,123.349 179.509,121.923 168.919 L 121.227 163.755 120.559 164.919 C 120.192 165.559,119.040 167.621,117.999 169.500 C 116.959 171.379,115.400 174.192,114.536 175.750 C 113.671 177.308,112.129 180.100,111.107 181.954 C 110.086 183.808,109.225 185.252,109.195 185.163 C 109.130 184.973,109.681 182.190,111.587 173.083 C 113.454 164.165,114.363 159.640,114.301 159.584 C 114.250 159.537,110.149 162.392,99.358 169.986 C 97.767 171.105,96.444 171.998,96.417 171.969 C 96.390 171.940,99.356 167.379,103.007 161.833 L 109.646 151.750 109.016 151.700 C 108.670 151.673,104.126 151.880,98.918 152.161 C 93.710 152.442,89.421 152.643,89.387 152.609 C 89.353 152.575,92.271 150.875,95.871 148.831 C 102.118 145.285,107.860 142.001,107.966 141.914 C 108.019 141.870,107.327 141.469,92.500 132.953 C 89.237 131.078,89.419 131.192,89.514 131.097 C 89.553 131.058,94.009 131.284,99.417 131.599 C 104.825 131.913,109.351 132.151,109.474 132.127 C 109.614 132.100,108.866 130.813,107.460 128.667 C 98.153 114.452,96.452 111.822,96.528 111.760 C 96.559 111.736,98.544 113.111,100.940 114.816 C 103.336 116.522,106.411 118.699,107.773 119.654 C 109.136 120.610,111.000 121.930,111.917 122.587 C 112.833 123.244,113.774 123.905,114.008 124.055 C 114.430 124.326,114.426 124.300,112.793 116.289 C 111.891 111.867,110.711 106.077,110.170 103.421 C 109.310 99.202,109.153 98.219,109.389 98.514 C 109.419 98.552,109.842 99.333,110.327 100.250 C 110.813 101.167,111.979 103.304,112.919 105.000 C 113.858 106.696,115.562 109.771,116.706 111.833 C 117.849 113.896,119.339 116.596,120.017 117.833 L 121.250 120.083 121.378 119.167 C 121.448 118.662,122.292 112.741,123.253 106.008 C 124.214 99.274,125.000 93.730,125.000 93.688 C 125.000 93.646,125.036 93.647,125.079 93.690 C 125.122 93.733,125.458 95.940,125.826 98.593 " stroke="none" fill="#010066" fill-rule="evenodd"></path><path id="path2" d="M200.000 74.083 L 200.000 83.833 300.000 83.833 L 400.000 83.833 400.000 74.083 L 400.000 64.333 300.000 64.333 L 200.000 64.333 200.000 74.083 M200.000 112.917 L 200.000 122.500 300.000 122.500 L 400.000 122.500 400.000 112.917 L 400.000 103.333 300.000 103.333 L 200.000 103.333 200.000 112.917 M200.000 151.583 L 200.000 161.167 300.000 161.167 L 400.000 161.167 400.000 151.583 L 400.000 142.000 300.000 142.000 L 200.000 142.000 200.000 151.583 M200.000 190.333 L 200.000 200.000 300.000 200.000 L 400.000 200.000 400.000 190.333 L 400.000 180.667 300.000 180.667 L 200.000 180.667 200.000 190.333 M0.000 229.000 L 0.000 238.667 200.000 238.667 L 400.000 238.667 400.000 229.111 L 400.000 219.555 249.972 219.444 C 167.457 219.383,77.457 219.333,49.972 219.333 L 0.000 219.333 0.000 229.000 M0.000 267.750 L 0.000 277.333 200.000 277.333 L 400.000 277.333 400.000 267.750 L 400.000 258.167 200.000 258.167 L 0.000 258.167 0.000 267.750 M0.000 306.500 L 0.000 316.167 200.000 316.167 L 400.000 316.167 400.000 306.500 L 400.000 296.833 200.000 296.833 L 0.000 296.833 0.000 306.500 " stroke="none" fill="#cc0001" fill-rule="evenodd"></path><path id="path3" d="M79.958 83.951 C 80.165 83.991,80.502 83.991,80.708 83.951 C 80.915 83.911,80.746 83.879,80.333 83.879 C 79.921 83.879,79.752 83.911,79.958 83.951 M83.958 83.951 C 84.165 83.991,84.502 83.991,84.708 83.951 C 84.915 83.911,84.746 83.879,84.333 83.879 C 83.921 83.879,83.752 83.911,83.958 83.951 M101.667 90.061 C 101.667 90.106,101.892 90.304,102.167 90.500 C 102.442 90.696,102.667 90.819,102.667 90.773 C 102.667 90.727,102.442 90.529,102.167 90.333 C 101.892 90.138,101.667 90.015,101.667 90.061 M92.132 90.624 C 92.708 90.656,93.608 90.656,94.132 90.623 C 94.655 90.590,94.183 90.563,93.083 90.564 C 91.983 90.564,91.555 90.591,92.132 90.624 M105.462 93.015 C 105.573 93.161,105.608 93.342,105.540 93.417 C 105.472 93.492,105.504 93.503,105.611 93.442 C 105.718 93.381,105.839 93.425,105.880 93.541 C 105.921 93.656,106.002 93.707,106.060 93.653 C 106.118 93.600,105.962 93.375,105.713 93.153 C 105.464 92.932,105.351 92.869,105.462 93.015 M56.664 95.292 L 54.750 97.250 56.708 95.336 C 57.785 94.283,58.667 93.402,58.667 93.378 C 58.667 93.258,58.442 93.473,56.664 95.292 M109.167 98.760 C 109.167 98.903,109.245 98.971,109.340 98.913 C 109.447 98.846,109.488 98.954,109.448 99.194 C 109.412 99.408,109.414 99.489,109.454 99.373 C 109.493 99.257,109.595 99.206,109.681 99.259 C 109.766 99.311,109.748 99.162,109.641 98.927 C 109.424 98.451,109.167 98.360,109.167 98.760 M71.573 99.542 L 71.083 100.083 71.625 99.594 C 72.130 99.138,72.243 99.000,72.115 99.000 C 72.086 99.000,71.842 99.244,71.573 99.542 M126.039 100.833 C 126.039 101.154,126.073 101.285,126.115 101.125 C 126.157 100.965,126.157 100.702,126.115 100.542 C 126.073 100.381,126.039 100.513,126.039 100.833 M69.494 101.625 L 68.583 102.583 69.542 101.672 C 70.432 100.826,70.576 100.667,70.453 100.667 C 70.427 100.667,69.995 101.098,69.494 101.625 M126.205 102.000 C 126.205 102.321,126.240 102.452,126.282 102.292 C 126.323 102.131,126.323 101.869,126.282 101.708 C 126.240 101.548,126.205 101.679,126.205 102.000 M249.958 103.292 C 277.481 103.315,322.519 103.315,350.042 103.292 C 377.565 103.268,355.046 103.249,300.000 103.249 C 244.954 103.249,222.435 103.268,249.958 103.292 M133.917 110.833 C 133.774 111.108,133.696 111.333,133.741 111.333 C 133.787 111.333,133.941 111.108,134.083 110.833 C 134.226 110.558,134.304 110.333,134.259 110.333 C 134.213 110.333,134.059 110.558,133.917 110.833 M62.083 112.000 C 61.851 112.458,61.699 112.833,61.744 112.833 C 61.790 112.833,62.018 112.458,62.250 112.000 C 62.482 111.542,62.635 111.167,62.589 111.167 C 62.543 111.167,62.316 111.542,62.083 112.000 M150.583 113.931 L 150.083 114.361 150.625 114.002 C 150.923 113.805,151.167 113.612,151.167 113.572 C 151.167 113.447,151.096 113.491,150.583 113.931 M97.812 113.917 C 97.902 114.100,98.098 114.400,98.247 114.583 L 98.518 114.917 98.355 114.583 C 98.265 114.400,98.069 114.100,97.920 113.917 L 97.648 113.583 97.812 113.917 M122.039 114.500 C 122.039 114.821,122.073 114.952,122.115 114.792 C 122.157 114.631,122.157 114.369,122.115 114.208 C 122.073 114.048,122.039 114.179,122.039 114.500 M118.417 115.167 C 118.559 115.442,118.713 115.667,118.759 115.667 C 118.804 115.667,118.726 115.442,118.583 115.167 C 118.441 114.892,118.287 114.667,118.241 114.667 C 118.196 114.667,118.274 114.892,118.417 115.167 M129.750 118.333 C 129.608 118.608,129.529 118.833,129.575 118.833 C 129.621 118.833,129.774 118.608,129.917 118.333 C 130.059 118.058,130.138 117.833,130.092 117.833 C 130.046 117.833,129.892 118.058,129.750 118.333 M100.979 118.750 C 101.069 118.933,101.264 119.233,101.414 119.417 L 101.685 119.750 101.521 119.417 C 101.431 119.233,101.236 118.933,101.086 118.750 L 100.815 118.417 100.979 118.750 M42.095 120.929 C 42.034 121.173,42.016 121.405,42.055 121.444 C 42.094 121.483,42.177 121.316,42.238 121.071 C 42.299 120.827,42.317 120.595,42.278 120.556 C 42.239 120.517,42.157 120.684,42.095 120.929 M109.667 121.067 C 109.667 121.113,110.004 121.383,110.417 121.667 C 110.829 121.950,111.167 122.145,111.167 122.099 C 111.167 122.054,110.829 121.784,110.417 121.500 C 110.004 121.216,109.667 121.021,109.667 121.067 M146.603 122.417 C 146.454 122.646,146.212 123.040,146.064 123.292 L 145.794 123.750 146.129 123.344 C 146.525 122.865,147.050 122.000,146.945 122.000 C 146.905 122.000,146.751 122.188,146.603 122.417 M250.208 122.625 C 277.685 122.648,322.648 122.648,350.125 122.625 C 377.602 122.602,355.121 122.583,300.167 122.583 C 245.213 122.583,222.731 122.602,250.208 122.625 M105.979 126.417 C 106.069 126.600,106.264 126.900,106.414 127.083 L 106.685 127.417 106.521 127.083 C 106.431 126.900,106.236 126.600,106.086 126.417 L 105.815 126.083 105.979 126.417 M89.500 131.138 C 89.500 131.214,89.725 131.243,90.000 131.202 C 90.275 131.162,90.500 131.100,90.500 131.064 C 90.500 131.029,90.275 131.000,90.000 131.000 C 89.725 131.000,89.500 131.062,89.500 131.138 M92.042 131.286 C 92.294 131.324,92.706 131.324,92.958 131.286 C 93.210 131.248,93.004 131.217,92.500 131.217 C 91.996 131.217,91.790 131.248,92.042 131.286 M159.181 131.234 C 159.313 131.363,160.483 131.406,160.602 131.287 C 160.668 131.221,160.360 131.167,159.917 131.167 C 159.474 131.167,159.142 131.197,159.181 131.234 M94.961 131.454 C 95.261 131.491,95.711 131.490,95.961 131.452 C 96.212 131.414,95.967 131.384,95.417 131.385 C 94.867 131.386,94.662 131.417,94.961 131.454 M156.628 131.454 C 156.928 131.491,157.378 131.490,157.628 131.452 C 157.878 131.414,157.633 131.384,157.083 131.385 C 156.533 131.386,156.328 131.417,156.628 131.454 M97.875 131.619 C 98.127 131.658,98.540 131.658,98.792 131.619 C 99.044 131.581,98.837 131.550,98.333 131.550 C 97.829 131.550,97.623 131.581,97.875 131.619 M109.489 131.778 C 109.619 132.046,109.610 132.162,109.457 132.223 C 109.335 132.273,109.370 132.312,109.542 132.320 C 109.902 132.336,109.912 132.162,109.574 131.740 C 109.323 131.427,109.321 131.428,109.489 131.778 M153.375 131.619 C 153.627 131.658,154.040 131.658,154.292 131.619 C 154.544 131.581,154.337 131.550,153.833 131.550 C 153.329 131.550,153.123 131.581,153.375 131.619 M101.044 131.786 C 101.297 131.825,101.672 131.824,101.877 131.784 C 102.082 131.744,101.875 131.713,101.417 131.714 C 100.958 131.716,100.791 131.748,101.044 131.786 M150.211 131.786 C 150.464 131.825,150.839 131.824,151.044 131.784 C 151.249 131.744,151.042 131.713,150.583 131.714 C 150.125 131.716,149.957 131.748,150.211 131.786 M103.877 131.953 C 104.131 131.991,104.506 131.990,104.711 131.951 C 104.916 131.911,104.708 131.880,104.250 131.881 C 103.792 131.882,103.624 131.915,103.877 131.953 M147.042 131.953 C 147.294 131.991,147.706 131.991,147.958 131.953 C 148.210 131.915,148.004 131.883,147.500 131.883 C 146.996 131.883,146.790 131.915,147.042 131.953 M106.792 132.118 C 106.998 132.157,107.335 132.157,107.542 132.118 C 107.748 132.078,107.579 132.045,107.167 132.045 C 106.754 132.045,106.585 132.078,106.792 132.118 M144.044 132.120 C 144.297 132.158,144.672 132.157,144.877 132.117 C 145.082 132.078,144.875 132.046,144.417 132.048 C 143.958 132.049,143.791 132.081,144.044 132.120 M140.792 132.284 C 140.998 132.324,141.335 132.324,141.542 132.284 C 141.748 132.245,141.579 132.212,141.167 132.212 C 140.754 132.212,140.585 132.245,140.792 132.284 M39.539 135.000 C 39.539 135.321,39.573 135.452,39.615 135.292 C 39.657 135.131,39.657 134.869,39.615 134.708 C 39.573 134.548,39.539 134.679,39.539 135.000 M55.205 135.833 C 55.205 136.154,55.240 136.285,55.282 136.125 C 55.323 135.965,55.323 135.702,55.282 135.542 C 55.240 135.381,55.205 135.512,55.205 135.833 M39.383 137.500 C 39.383 138.004,39.415 138.210,39.453 137.958 C 39.491 137.706,39.491 137.294,39.453 137.042 C 39.415 136.790,39.383 136.996,39.383 137.500 M55.050 138.000 C 55.050 138.504,55.081 138.710,55.119 138.458 C 55.158 138.206,55.158 137.794,55.119 137.542 C 55.081 137.290,55.050 137.496,55.050 138.000 M148.792 137.929 C 148.169 138.267,148.207 138.407,148.833 138.083 C 149.108 137.941,149.333 137.789,149.333 137.746 C 149.333 137.638,149.315 137.645,148.792 137.929 M101.167 137.908 C 101.167 137.954,101.392 138.108,101.667 138.250 C 101.942 138.392,102.167 138.471,102.167 138.425 C 102.167 138.379,101.942 138.226,101.667 138.083 C 101.392 137.941,101.167 137.862,101.167 137.908 M39.226 141.917 C 39.225 142.742,39.254 143.100,39.288 142.713 C 39.323 142.327,39.324 141.652,39.289 141.213 C 39.255 140.775,39.226 141.092,39.226 141.917 M107.917 141.833 C 107.973 141.925,107.955 142.000,107.875 142.000 C 107.795 142.000,107.585 142.116,107.407 142.258 C 107.125 142.483,107.154 142.482,107.630 142.251 C 108.076 142.035,108.244 141.667,107.897 141.667 C 107.851 141.667,107.860 141.742,107.917 141.833 M249.958 141.958 C 277.481 141.982,322.519 141.982,350.042 141.958 C 377.565 141.935,355.046 141.916,300.000 141.916 C 244.954 141.916,222.435 141.935,249.958 141.958 M55.050 146.167 C 55.050 146.671,55.081 146.877,55.119 146.625 C 55.158 146.373,55.158 145.960,55.119 145.708 C 55.081 145.456,55.050 145.662,55.050 146.167 M39.383 146.333 C 39.383 146.837,39.415 147.044,39.453 146.792 C 39.491 146.540,39.491 146.127,39.453 145.875 C 39.415 145.623,39.383 145.829,39.383 146.333 M55.205 148.333 C 55.205 148.654,55.240 148.785,55.282 148.625 C 55.323 148.465,55.323 148.202,55.282 148.042 C 55.240 147.881,55.205 148.012,55.205 148.333 M39.539 148.833 C 39.539 149.154,39.573 149.285,39.615 149.125 C 39.657 148.965,39.657 148.702,39.615 148.542 C 39.573 148.381,39.539 148.512,39.539 148.833 M108.879 151.623 C 109.403 151.664,109.636 151.748,109.562 151.868 C 109.494 151.979,109.525 152.004,109.641 151.933 C 110.068 151.668,109.786 151.502,108.958 151.530 L 108.083 151.560 108.879 151.623 M105.544 151.786 C 105.797 151.825,106.172 151.824,106.377 151.784 C 106.582 151.744,106.375 151.713,105.917 151.714 C 105.458 151.716,105.291 151.748,105.544 151.786 M142.377 151.786 C 142.631 151.825,143.006 151.824,143.211 151.784 C 143.416 151.744,143.208 151.713,142.750 151.714 C 142.292 151.716,142.124 151.748,142.377 151.786 M102.377 151.953 C 102.631 151.991,103.006 151.990,103.211 151.951 C 103.416 151.911,103.208 151.880,102.750 151.881 C 102.292 151.882,102.124 151.915,102.377 151.953 M145.292 151.951 C 145.498 151.991,145.835 151.991,146.042 151.951 C 146.248 151.911,146.079 151.879,145.667 151.879 C 145.254 151.879,145.085 151.911,145.292 151.951 M99.211 152.120 C 99.464 152.158,99.839 152.157,100.044 152.117 C 100.249 152.078,100.042 152.046,99.583 152.048 C 99.125 152.049,98.957 152.081,99.211 152.120 M148.292 152.118 C 148.498 152.157,148.835 152.157,149.042 152.118 C 149.248 152.078,149.079 152.045,148.667 152.045 C 148.254 152.045,148.085 152.078,148.292 152.118 M96.044 152.286 C 96.297 152.325,96.672 152.324,96.877 152.284 C 97.082 152.244,96.875 152.213,96.417 152.214 C 95.958 152.216,95.791 152.248,96.044 152.286 M151.211 152.286 C 151.464 152.325,151.839 152.324,152.044 152.284 C 152.249 152.244,152.042 152.213,151.583 152.214 C 151.125 152.216,150.957 152.248,151.211 152.286 M89.397 152.532 C 89.351 152.606,89.712 152.661,90.198 152.654 C 91.157 152.639,91.123 152.561,90.115 152.461 C 89.766 152.426,89.442 152.458,89.397 152.532 M92.875 152.453 C 93.127 152.491,93.540 152.491,93.792 152.453 C 94.044 152.415,93.837 152.383,93.333 152.383 C 92.829 152.383,92.623 152.415,92.875 152.453 M154.044 152.453 C 154.297 152.491,154.672 152.490,154.877 152.451 C 155.082 152.411,154.875 152.380,154.417 152.381 C 153.958 152.382,153.791 152.415,154.044 152.453 M157.044 152.620 C 157.297 152.658,157.672 152.657,157.877 152.617 C 158.082 152.578,157.875 152.546,157.417 152.548 C 156.958 152.549,156.791 152.581,157.044 152.620 M159.917 152.667 C 159.423 152.792,159.424 152.794,160.052 152.814 C 160.437 152.826,160.646 152.768,160.583 152.667 C 160.527 152.575,160.466 152.509,160.448 152.520 C 160.431 152.531,160.192 152.597,159.917 152.667 M113.979 159.625 C 113.774 159.886,113.779 159.894,114.025 159.701 C 114.251 159.525,114.317 159.525,114.387 159.701 C 114.442 159.838,114.478 159.810,114.487 159.625 C 114.494 159.465,114.434 159.333,114.354 159.333 C 114.273 159.333,114.105 159.465,113.979 159.625 M146.312 161.083 C 146.402 161.267,146.598 161.567,146.747 161.750 L 147.018 162.083 146.855 161.750 C 146.765 161.567,146.569 161.267,146.420 161.083 L 146.148 160.750 146.312 161.083 M249.958 161.292 C 277.481 161.315,322.519 161.315,350.042 161.292 C 377.565 161.268,355.046 161.249,300.000 161.249 C 244.954 161.249,222.435 161.268,249.958 161.292 M42.023 162.500 C 42.023 162.637,42.088 162.900,42.167 163.083 C 42.257 163.293,42.310 163.324,42.310 163.167 C 42.310 163.029,42.245 162.767,42.167 162.583 C 42.076 162.373,42.023 162.342,42.023 162.500 M144.500 165.727 C 144.500 165.773,144.725 165.971,145.000 166.167 C 145.275 166.362,145.500 166.485,145.500 166.439 C 145.500 166.394,145.275 166.196,145.000 166.000 C 144.725 165.804,144.500 165.681,144.500 165.727 M150.167 169.727 C 150.167 169.773,150.392 169.971,150.667 170.167 C 150.942 170.362,151.167 170.485,151.167 170.439 C 151.167 170.394,150.942 170.196,150.667 170.000 C 150.392 169.804,150.167 169.681,150.167 169.727 M98.583 170.431 L 98.083 170.861 98.625 170.502 C 98.923 170.305,99.167 170.112,99.167 170.072 C 99.167 169.947,99.096 169.991,98.583 170.431 M61.917 171.833 C 62.149 172.292,62.376 172.667,62.422 172.667 C 62.468 172.667,62.316 172.292,62.083 171.833 C 61.851 171.375,61.624 171.000,61.578 171.000 C 61.532 171.000,61.684 171.375,61.917 171.833 M153.070 171.607 C 153.093 171.767,153.200 171.928,153.306 171.963 C 153.577 172.054,153.548 171.748,153.263 171.511 C 153.073 171.353,153.035 171.372,153.070 171.607 M122.372 172.167 C 122.372 172.487,122.406 172.619,122.448 172.458 C 122.490 172.298,122.490 172.035,122.448 171.875 C 122.406 171.715,122.372 171.846,122.372 172.167 M137.417 179.500 C 137.559 179.775,137.713 180.000,137.759 180.000 C 137.804 180.000,137.726 179.775,137.583 179.500 C 137.441 179.225,137.287 179.000,137.241 179.000 C 137.196 179.000,137.274 179.225,137.417 179.500 M138.417 181.333 C 138.559 181.608,138.713 181.833,138.759 181.833 C 138.804 181.833,138.726 181.608,138.583 181.333 C 138.441 181.058,138.287 180.833,138.241 180.833 C 138.196 180.833,138.274 181.058,138.417 181.333 M70.417 183.500 C 71.330 184.417,72.115 185.167,72.160 185.167 C 72.206 185.167,71.497 184.417,70.583 183.500 C 69.670 182.583,68.885 181.833,68.840 181.833 C 68.794 181.833,69.503 182.583,70.417 183.500 M110.750 182.333 C 110.608 182.608,110.529 182.833,110.575 182.833 C 110.621 182.833,110.774 182.608,110.917 182.333 C 111.059 182.058,111.138 181.833,111.092 181.833 C 111.046 181.833,110.892 182.058,110.750 182.333 M126.039 182.333 C 126.039 182.654,126.073 182.785,126.115 182.625 C 126.157 182.465,126.157 182.202,126.115 182.042 C 126.073 181.881,126.039 182.012,126.039 182.333 M109.917 183.833 C 109.774 184.108,109.696 184.333,109.741 184.333 C 109.787 184.333,109.941 184.108,110.083 183.833 C 110.226 183.558,110.304 183.333,110.259 183.333 C 110.213 183.333,110.059 183.558,109.917 183.833 M55.493 187.375 C 55.902 187.810,56.258 188.167,56.285 188.167 C 56.410 188.167,56.278 188.017,55.542 187.326 L 54.750 186.583 55.493 187.375 M57.826 189.708 C 58.235 190.144,58.591 190.500,58.618 190.500 C 58.743 190.500,58.611 190.350,57.875 189.660 L 57.083 188.917 57.826 189.708 M124.943 189.561 C 124.874 189.824,124.856 190.079,124.905 190.127 C 125.039 190.261,125.203 189.724,125.131 189.385 C 125.085 189.163,125.035 189.209,124.943 189.561 M80.500 190.750 C 80.729 190.881,80.992 190.988,81.083 190.988 C 81.175 190.988,81.063 190.881,80.833 190.750 C 80.604 190.619,80.342 190.512,80.250 190.512 C 80.158 190.512,80.271 190.619,80.500 190.750 M89.708 193.448 C 89.869 193.490,90.131 193.490,90.292 193.448 C 90.452 193.406,90.321 193.372,90.000 193.372 C 89.679 193.372,89.548 193.406,89.708 193.448 M92.214 193.623 C 92.745 193.657,93.570 193.656,94.048 193.623 C 94.526 193.589,94.092 193.562,93.083 193.562 C 92.075 193.563,91.684 193.590,92.214 193.623 M79.794 199.951 C 80.001 199.991,80.301 199.990,80.460 199.948 C 80.620 199.906,80.450 199.874,80.083 199.875 C 79.717 199.877,79.586 199.911,79.794 199.951 M84.294 199.951 C 84.501 199.991,84.801 199.990,84.960 199.948 C 85.120 199.906,84.950 199.874,84.583 199.875 C 84.217 199.877,84.086 199.911,84.294 199.951 M249.958 219.458 C 277.481 219.482,322.519 219.482,350.042 219.458 C 377.565 219.435,355.046 219.416,300.000 219.416 C 244.954 219.416,222.435 219.435,249.958 219.458 M99.958 258.125 C 154.981 258.148,245.019 258.148,300.042 258.125 C 355.065 258.102,310.046 258.083,200.000 258.083 C 89.954 258.083,44.935 258.102,99.958 258.125 M99.958 277.458 C 154.981 277.481,245.019 277.481,300.042 277.458 C 355.065 277.435,310.046 277.416,200.000 277.416 C 89.954 277.416,44.935 277.435,99.958 277.458 " stroke="none" fill="#dd5657" fill-rule="evenodd"></path><path id="path4" d="M79.583 84.005 C 51.576 86.326,32.573 124.494,41.580 160.333 C 50.396 195.413,80.648 210.638,104.198 191.848 C 105.385 190.901,105.376 190.897,103.662 191.583 C 78.581 201.619,53.617 174.628,55.027 139.000 C 56.344 105.707,81.412 82.529,104.769 93.008 C 106.067 93.591,106.021 93.475,104.452 92.205 C 96.913 86.103,88.349 83.279,79.583 84.005 M125.019 94.230 C 125.009 94.311,124.664 96.711,124.254 99.564 C 123.844 102.416,123.056 108.013,122.504 112.000 C 121.952 115.987,121.443 119.469,121.373 119.737 C 121.254 120.190,121.133 120.020,119.594 117.237 C 115.949 110.643,113.787 106.728,111.663 102.880 C 110.438 100.659,109.418 98.860,109.396 98.882 C 109.359 98.918,111.411 109.083,113.584 119.634 C 114.100 122.137,114.498 124.245,114.469 124.318 C 114.440 124.391,113.285 123.656,111.901 122.684 C 105.060 117.877,98.016 112.889,97.451 112.450 C 96.476 111.695,96.543 111.825,99.231 115.925 C 111.311 134.352,110.104 132.345,109.042 132.238 C 107.730 132.106,89.805 131.140,89.746 131.198 C 89.717 131.228,92.368 132.784,95.638 134.656 C 107.131 141.236,108.230 141.893,107.983 142.041 C 107.855 142.118,106.250 143.032,104.417 144.073 C 88.762 152.957,89.526 152.500,90.336 152.500 C 90.748 152.500,95.278 152.275,100.403 151.999 C 105.528 151.724,109.751 151.529,109.788 151.565 C 109.824 151.602,108.962 152.971,107.871 154.608 C 106.780 156.244,105.225 158.596,104.416 159.833 C 101.056 164.969,99.365 167.538,97.943 169.665 C 97.117 170.902,96.601 171.802,96.798 171.665 C 100.996 168.749,109.472 162.803,112.646 160.548 C 113.596 159.872,114.405 159.350,114.443 159.387 C 114.480 159.425,113.726 163.234,112.767 167.853 C 109.873 181.789,109.225 185.009,109.341 184.877 C 109.402 184.807,111.574 180.925,114.168 176.250 C 120.208 165.363,121.186 163.631,121.257 163.701 C 121.301 163.746,123.453 179.079,124.709 188.307 C 124.913 189.804,125.042 189.749,125.240 188.083 C 125.506 185.839,128.666 163.779,128.730 163.714 C 128.769 163.676,129.346 164.643,130.014 165.864 C 130.682 167.085,132.889 171.083,134.919 174.750 C 136.949 178.417,139.048 182.223,139.583 183.208 C 140.764 185.382,140.770 185.379,140.259 182.902 C 138.465 174.194,135.500 159.590,135.500 159.463 C 135.500 159.376,135.856 159.561,136.292 159.875 C 136.727 160.188,138.771 161.634,140.833 163.087 C 142.896 164.541,145.746 166.553,147.167 167.558 C 151.459 170.596,152.906 171.610,153.139 171.743 C 153.403 171.894,153.312 171.749,149.803 166.417 C 144.541 158.421,140.143 151.635,140.196 151.596 C 140.226 151.574,144.525 151.806,149.750 152.110 C 154.975 152.415,159.492 152.646,159.787 152.624 C 160.339 152.582,160.479 152.666,144.508 143.530 C 143.174 142.767,142.031 142.092,141.967 142.030 C 141.903 141.968,145.466 139.861,149.884 137.349 C 154.302 134.837,158.479 132.451,159.167 132.046 L 160.417 131.311 158.333 131.408 C 157.188 131.462,152.658 131.694,148.268 131.924 C 143.878 132.154,140.263 132.319,140.235 132.290 C 140.189 132.244,143.111 127.762,151.222 115.440 L 153.510 111.964 152.463 112.707 C 146.870 116.679,135.611 124.500,135.560 124.449 C 135.524 124.413,135.678 123.529,135.902 122.484 C 136.126 121.438,137.066 116.908,137.989 112.417 C 138.913 107.925,139.923 103.050,140.233 101.583 C 140.543 100.117,140.779 98.897,140.757 98.872 C 140.717 98.828,133.054 112.567,130.345 117.539 C 129.559 118.981,128.875 120.162,128.824 120.164 C 128.729 120.167,128.312 117.289,126.322 102.917 C 125.215 94.923,125.062 93.903,125.019 94.230 M100.042 238.792 C 155.019 238.815,244.981 238.815,299.958 238.792 C 354.935 238.769,309.954 238.750,200.000 238.750 C 90.046 238.750,45.065 238.769,100.042 238.792 M99.958 296.792 C 154.981 296.815,245.019 296.815,300.042 296.792 C 355.065 296.769,310.046 296.750,200.000 296.750 C 89.954 296.750,44.935 296.769,99.958 296.792 " stroke="none" fill="#ffcc00" fill-rule="evenodd"></path></g></svg>